<svg xmlns="http://www.w3.org/2000/svg" xml:space="preserve" style="fill-rule:evenodd;clip-rule:evenodd;stroke-linejoin:round;stroke-miterlimit:2" viewBox="0 0 267 267" id="radar">
  <path d="M47.127,214.218c-20.167,-21.287 -32.544,-50.028 -32.544,-81.638c0,-65.539 53.21,-118.75 118.75,-118.75c65.54,0 118.75,53.211 118.75,118.75c0,65.54 -53.21,118.75 -118.75,118.75c-23.816,0 -46.004,-7.026 -64.603,-19.117c-0.481,-0.313 -0.812,-0.811 -0.914,-1.376c-0.103,-0.565 0.033,-1.147 0.374,-1.609c1.443,-1.952 2.296,-4.365 2.296,-6.976c-0,-6.488 -5.268,-11.755 -11.756,-11.755c-3.379,-0 -6.426,1.429 -8.571,3.714c-0.393,0.418 -0.941,0.656 -1.515,0.658c-0.573,0.001 -1.122,-0.234 -1.517,-0.651Z" style="fill:#17353b"></path>
  <path d="M110.441,52.877c7.273,-2.088 14.953,-3.207 22.892,-3.207c31.87,0 59.564,18.02 73.439,44.418c0.262,0.498 0.311,1.08 0.137,1.614c-0.174,0.535 -0.556,0.976 -1.061,1.225l-69.219,34.07l37.561,71.405c0.528,1.004 0.157,2.245 -0.836,2.793c-11.868,6.56 -25.512,10.296 -40.021,10.296c-45.759,-0 -82.91,-37.151 -82.91,-82.911c0,-27.486 13.403,-51.866 34.026,-66.954c0.471,-0.345 1.065,-0.476 1.638,-0.362c0.572,0.114 1.071,0.464 1.373,0.963c2.119,3.493 5.958,5.829 10.338,5.829c6.668,0 12.081,-5.413 12.081,-12.08c-0,-1.532 -0.285,-2.997 -0.806,-4.346c-0.211,-0.546 -0.183,-1.154 0.078,-1.678c0.26,-0.524 0.728,-0.914 1.29,-1.075Zm3.192,3.448c0.27,1.174 0.413,2.396 0.413,3.651c-0,8.967 -7.281,16.247 -16.248,16.247c-5.067,0 -9.596,-2.324 -12.577,-5.965c-18.627,14.408 -30.631,36.974 -30.631,62.322c-0,43.46 35.284,78.744 78.743,78.744c13.051,-0 25.365,-3.182 36.207,-8.812l-37.595,-71.469c-0.262,-0.498 -0.311,-1.08 -0.137,-1.615c0.174,-0.534 0.556,-0.976 1.061,-1.224c-0,-0 69.193,-34.058 69.194,-34.058c-13.486,-24.044 -39.223,-40.309 -68.73,-40.309c-6.801,0 -13.403,0.864 -19.7,2.488Z" style="fill:#fcbf0e"></path>
  <path d="M100.893,160.785c-6.572,-7.552 -10.553,-17.417 -10.553,-28.205c-0,-23.728 19.264,-42.993 42.993,-42.993c16.147,-0 30.227,8.919 37.575,22.096c0.278,0.499 0.34,1.09 0.17,1.635c-0.17,0.545 -0.557,0.997 -1.069,1.249c-0,0 -33.38,16.43 -33.38,16.43l18.97,36.063c0.521,0.99 0.167,2.214 -0.802,2.774c-6.318,3.65 -13.648,5.74 -21.464,5.74c-2.988,0 -5.906,-0.306 -8.723,-0.887c-0.6,-0.124 -1.114,-0.505 -1.408,-1.043c-0.293,-0.537 -0.335,-1.176 -0.115,-1.747c0.481,-1.246 0.744,-2.599 0.744,-4.014c-0,-6.165 -5.006,-11.17 -11.171,-11.17c-3.454,-0 -6.543,1.571 -8.593,4.036c-0.391,0.47 -0.968,0.745 -1.579,0.751c-0.61,0.007 -1.193,-0.254 -1.595,-0.715Zm1.712,-4.48c2.693,-2.341 6.21,-3.759 10.055,-3.759c8.465,-0 15.337,6.872 15.337,15.337c0,1.067 -0.109,2.109 -0.317,3.115c1.845,0.27 3.733,0.41 5.653,0.41c6.343,-0 12.333,-1.524 17.622,-4.226l-19.01,-36.139c-0.262,-0.498 -0.311,-1.08 -0.137,-1.615c0.174,-0.534 0.556,-0.976 1.061,-1.224c-0,-0 33.276,-16.379 33.276,-16.379c-6.887,-10.858 -19.013,-18.072 -32.812,-18.072c-21.429,0 -38.827,17.398 -38.827,38.827c0,8.932 3.022,17.162 8.099,23.725Z" style="fill:#fcbf0e"></path>
  <path d="M187.191,236.067l-55.246,-105.024c-0.262,-0.498 -0.311,-1.08 -0.137,-1.615c0.174,-0.534 0.556,-0.976 1.061,-1.224l103.305,-50.848c1.019,-0.502 2.251,-0.095 2.772,0.914c8.395,16.28 13.137,34.746 13.137,54.31c0,45.013 -25.097,84.21 -62.051,104.347c-0.49,0.267 -1.066,0.326 -1.6,0.164c-0.534,-0.161 -0.981,-0.53 -1.241,-1.024Z" style="fill:#1f7bdc"></path>
  <path d="M58.73,206.33c8.788,-0 15.922,7.134 15.922,15.922c0,8.788 -7.134,15.922 -15.922,15.922c-8.787,0 -15.922,-7.134 -15.922,-15.922c-0,-8.788 7.135,-15.922 15.922,-15.922Zm39.068,-162.602c8.967,0 16.248,7.28 16.248,16.248c-0,8.967 -7.281,16.247 -16.248,16.247c-8.967,0 -16.247,-7.28 -16.247,-16.247c-0,-8.968 7.28,-16.248 16.247,-16.248Zm14.862,108.818c8.465,-0 15.337,6.872 15.337,15.337c0,8.465 -6.872,15.338 -15.337,15.338c-8.465,-0 -15.337,-6.873 -15.337,-15.338c-0,-8.465 6.872,-15.337 15.337,-15.337Z" style="fill:#fcbf0e"></path>
  <path d="M244.472,174.47c-10.1,26.753 -29.589,48.915 -54.44,62.457c-0.49,0.267 -1.066,0.326 -1.6,0.164c-0.534,-0.161 -0.981,-0.53 -1.241,-1.024l-55.246,-105.024c-0.262,-0.498 -0.311,-1.08 -0.137,-1.615c0.036,-0.111 0.081,-0.218 0.135,-0.32l112.529,45.362Z" style="fill:#1f4fdc"></path>
</svg>
